#!OML:ASF Y:\EmotionMaleHayes\Project 1\Capture day 1\Session 1\Male1.ASF
:FULLY-SPECIFIED
:DEGREES
314
root -22.9083 16.6206 2.13888 157.29 98.0407 157.684
lowerback 9.04128 5.41198 1.74557
upperback -0.196975 7.32505 -1.67241
thorax -4.80951 3.56841 -3.64397
lowerneck -23.7465 -1.06617 -1.21407
upperneck 15.6777 -1.40372 1.69915
head 8.80666 -0.537903 0.581876
rclavicle -3.57812e-015 -1.51076e-014
rhumerus -36.132 14.3 -95.749
rradius 42.7792
rwrist -4.50554
rhand -10.0343 -33.4686
rfingers 7.12502
rthumb 15.9506 -62.8318
lclavicle -3.57812e-015 -1.51076e-014
lhumerus -43.6782 -0.905476 82.8488
lradius 23.184
lwrist -15.3927
lhand -17.2062 -28.639
lfingers 7.12502
lthumb 9.03642 1.14741
rfemur 23.8445 2.5169 20.6767
rtibia 16.136
rfoot -14.208 -4.31335
rtoes -9.98031
lfemur -17.2206 3.35088 -11.9144
ltibia 22.2522
lfoot -5.381 5.34157
ltoes 3.3676
315
root -22.7665 16.646 2.10201 158.791 98.1583 159.382
lowerback 9.09216 5.40693 1.64788
upperback -0.252886 7.3055 -1.74281
thorax -4.90081 3.5575 -3.67119
lowerneck -23.5065 -1.01685 -1.2062
upperneck 15.7131 -1.36959 1.83185
head 8.77904 -0.507021 0.631625
rclavicle -2.71341e-014 -1.59028e-014
rhumerus -36.1838 13.7284 -95.5931
rradius 41.6594
rwrist -3.87331
rhand -10.2695 -33.6274
rfingers 7.12502
rthumb 15.7241 -63.0086
lclavicle -2.71341e-014 -1.59028e-014
lhumerus -43.383 -1.19842 82.8175
lradius 23.2686
lwrist -15.1763
lhand -17.5477 -28.6046
lfingers 7.12502
lthumb 8.70682 1.19581
rfemur 23.5934 2.6641 20.2435
rtibia 17.4031
rfoot -12.8767 -4.3192
rtoes -7.14352
lfemur -16.2191 3.18456 -12.3533
ltibia 21.8786
lfoot -5.83187 5.49689
ltoes 3.61733
316
root -22.6233 16.6735 2.07017 158.967 98.0065 159.849
lowerback 9.11157 5.28636 1.46895
upperback -0.179616 7.12937 -1.67937
thorax -4.87665 3.47679 -3.48467
lowerneck -23.4647 -0.927595 -1.29796
upperneck 15.8272 -1.24923 1.97417
head 8.81115 -0.439677 0.712736
rclavicle 2.18663e-015 1.82882e-014
rhumerus -36.0752 13.3277 -95.2517
rradius 40.4462
rwrist -3.25226
rhand -10.4469 -33.7162
rfingers 7.12502
rthumb 15.5532 -63.1107
lclavicle 2.18663e-015 1.82882e-014
lhumerus -43.042 -1.29052 82.9148
lradius 23.4763
lwrist -15.0181
lhand -17.679 -28.4444
lfingers 7.12502
lthumb 8.58011 1.36129
rfemur 23.5288 2.72776 20.0468
rtibia 18.5383
rfoot -11.4876 -4.42244
rtoes -4.45311
lfemur -15.1817 2.96528 -12.7169
ltibia 21.583
lfoot -6.19248 5.39655
ltoes 3.32881
317
root -22.4742 16.7067 2.04129 159.077 97.4904 160.431
lowerback 9.21727 5.0522 1.11654
upperback -0.0331002 6.78475 -1.62742
thorax -4.85121 3.3177 -3.19909
lowerneck -23.5541 -0.783882 -1.17602
upperneck 16.1425 -1.0933 1.95517
head 8.93186 -0.358974 0.70943
rclavicle -4.36829e-014 1.90833e-014
rhumerus -36.0385 12.8388 -94.8665
rradius 39.3207
rwrist -2.7052
rhand -10.342 -33.2985
rfingers 7.12502
rthumb 15.6543 -62.6852
lclavicle -4.36829e-014 1.90833e-014
lhumerus -42.5572 -1.19042 82.8921
lradius 23.5051
lwrist -15.0905
lhand -18.136 -28.6742
lfingers 7.12502
lthumb 8.13905 1.14908
rfemur 23.7221 2.60784 19.7831
rtibia 19.6702
rfoot -10.2168 -4.98757
rtoes -4.46201
lfemur -13.9898 2.48603 -13.269
ltibia 21.3197
lfoot -6.6192 5.24376
ltoes 2.3756
318
root -22.354 16.7172 1.99405 160.873 98.6511 162.005
lowerback 8.97893 5.33134 1.29748
upperback -0.203012 7.17309 -1.6022
thorax -4.8551 3.50335 -3.3038
lowerneck -23.5668 -0.631235 -0.802805
upperneck 16.3959 -0.949981 1.66246
head 9.01602 -0.300337 0.569036
rclavicle -6.95746e-016 -8.74653e-015
rhumerus -36.1072 12.1948 -94.5184
rradius 38.3198
rwrist -2.1634
rhand -10.4689 -32.6572
rfingers 7.12502
rthumb 15.5321 -62.0534
lclavicle -6.95746e-016 -8.74653e-015
lhumerus -41.9408 -1.22804 82.8235
lradius 23.5017
lwrist -15.5375
lhand -18.8349 -28.9805
lfingers 7.12502
lthumb 7.46448 0.867819
rfemur 22.2175 3.20152 19.5427
rtibia 22.0048
rfoot -8.38211 -5.41078
rtoes -1.57949
lfemur -13.4632 2.94104 -13.1901
ltibia 21.0822
lfoot -7.20236 5.83604
ltoes 2.56336
319
root -22.2148 16.7506 1.95965 162.594 98.3334 164.054
lowerback 9.04141 5.1967 0.922502
upperback -0.13384 6.95398 -1.64808
thorax -4.86926 3.40438 -3.12304
lowerneck -23.479 -0.512871 -0.459527
upperneck 16.5393 -0.829084 1.31276
head 9.04597 -0.261707 0.410124
rclavicle 2.04251e-014 0
rhumerus -36.1874 11.5665 -94.1521
rradius 37.5151
rwrist -1.73217
rhand -10.5721 -32.6569
rfingers 7.12502
rthumb 15.4326 -62.0608
lclavicle 2.04251e-014 0
lhumerus -42.0269 -2.48933 83.3376
lradius 24.4591
lwrist -14.7351
lhand -18.4014 -28.5358
lfingers 7.12502
lthumb 7.88296 1.29725
rfemur 21.9173 3.10245 18.9587
rtibia 23.6621
rfoot -7.3931 -5.80675
rtoes 2.53532
lfemur -12.3679 2.42135 -13.9232
ltibia 20.6368
lfoot -7.61302 5.90347
ltoes 3.1493
320
root -22.1095 16.7879 1.93821 158.818 98.3264 160.291
lowerback 9.2535 5.03952 1.27299
upperback -0.226114 6.79035 -1.4343
thorax -5.07909 3.30985 -3.10284
lowerneck -23.4286 -0.384198 -0.20241
upperneck 16.6264 -0.691159 1.08916
head 9.06442 -0.206075 0.311015
rclavicle -2.76311e-014 -1.82882e-014
rhumerus -36.1363 10.9529 -93.7128
rradius 36.6737
rwrist -1.20577
rhand -10.4585 -32.8444
rfingers 7.12502
rthumb 15.5421 -62.2399
lclavicle -2.76311e-014 -1.82882e-014
lhumerus -41.4633 -2.9422 83.6288
lradius 24.6521
lwrist -14.0102
lhand -17.6734 -28.0137
lfingers 7.12502
lthumb 8.58549 1.79178
rfemur 20.9038 3.24289 19.7326
rtibia 25.8525
rfoot -6.62561 -6.64987
rtoes 5.44834
lfemur -11.9501 2.37514 -13.3188
ltibia 20.5998
lfoot -7.89825 5.78418
ltoes 3.2767
321
root -21.9768 16.8126 1.90197 160.297 97.9717 161.868
lowerback 9.15005 4.87841 0.946807
upperback -0.175904 6.54035 -1.44389
thorax -5.01762 3.1966 -2.88961
lowerneck -23.432 -0.260537 -0.189263
upperneck 16.6502 -0.535683 1.13125
head 9.07231 -0.127492 0.345776
rclavicle -8.49804e-014 2.14687e-014
rhumerus -36.0411 10.4032 -93.1932
rradius 35.7589
rwrist -0.61016
rhand -10.4237 -32.4845
rfingers 7.12502
rthumb 15.5756 -61.8773
lclavicle -8.49804e-014 2.14687e-014
lhumerus -40.704 -2.82902 83.6686
lradius 24.555
lwrist -14.126
lhand -17.8772 -27.6833
lfingers 7.12502
lthumb 8.38886 2.13014
rfemur 20.0999 2.80314 19.0108
rtibia 27.7495
rfoot -5.31894 -7.16603
rtoes 4.88754
lfemur -11.2085 2.04759 -13.9882
ltibia 20.2533
lfoot -8.20729 5.72152
ltoes 2.98579
322
root -21.8397 16.835 1.85895 165.733 98.2308 167.553
lowerback 9.16954 4.97331 0.247271
upperback -0.142133 6.58924 -1.53252
thorax -5.05894 3.23733 -2.60482
lowerneck -23.344 -0.161981 -0.381086
upperneck 16.6974 -0.38628 1.3601
head 9.07349 -0.0435054 0.477579
rclavicle -2.15433e-014 1.66979e-014
rhumerus -36.1331 9.93576 -92.6754
rradius 34.9986
rwrist -0.173224
rhand -10.416 -32.0446
rfingers 7.12502
rthumb 15.5831 -61.4368
lclavicle -2.15433e-014 1.66979e-014
lhumerus -40.35 -3.38442 84.0286
lradius 24.9115
lwrist -13.8004
lhand -18.0463 -27.3561
lfingers 7.12502
lthumb 8.22565 2.46373
rfemur 19.2164 2.88075 17.7556
rtibia 29.9765
rfoot -3.93055 -7.30428
rtoes 7.19661
lfemur -10.0472 1.95308 -15.1351
ltibia 19.7176
lfoot -8.58089 6.02309
ltoes 2.27554
323
root -21.7052 16.8461 1.8209 169.146 98.7587 171.151
lowerback 9.15679 5.1205 -0.148459
upperback -0.187306 6.73973 -1.60468
thorax -5.13008 3.31968 -2.48441
lowerneck -23.1229 -0.0634671 -0.347497
upperneck 16.7326 -0.275394 1.42204
head 9.04688 0.0176476 0.50919
rclavicle -1.38404e-014 -4.77083e-015
rhumerus -36.386 9.36555 -92.2423
rradius 34.4077
rwrist 0.285871
rhand -10.3601 -31.8889
rfingers 7.12502
rthumb 15.6369 -61.277
lclavicle -1.38404e-014 -4.77083e-015
lhumerus -40.0954 -4.24278 84.3868
lradius 25.4542
lwrist -12.7176
lhand -17.5516 -27.1117
lfingers 7.12502
lthumb 8.7031 2.68888
rfemur 18.174 3.19702 16.9836
rtibia 32.2892
rfoot -2.60657 -7.59888
rtoes 9.82913
lfemur -9.05591 2.21906 -15.8139
ltibia 19.3136
lfoot -8.88821 6.12279
ltoes 2.28335
